<svg version="1.1" id="Layer_1" xmlns="http://www.w3.org/2000/svg" xmlns:xlink="http://www.w3.org/1999/xlink" x="0px" y="0px"
	 width="100%" viewBox="0 0 1024 1024" enable-background="new 0 0 1024 1024" xml:space="preserve">
<path fill="#ffffff" opacity="1.000000" stroke="none" 
	d="
M730.422852,807.755615 
	C724.667358,801.091736 719.255737,794.555664 713.841614,788.021729 
	C712.778564,786.738770 711.747803,785.425781 710.629883,784.192200 
	C705.693909,778.745850 705.621277,778.660583 699.676697,782.655762 
	C663.701599,806.832947 623.834473,821.153748 581.563110,829.401978 
	C574.475830,830.784912 574.266113,830.953979 574.264038,838.032043 
	C574.261292,847.531311 574.158752,857.033142 574.359497,866.528442 
	C574.435852,870.139954 572.825562,871.767639 569.554626,872.195435 
	C543.054382,875.661316 516.516602,876.830017 489.895691,873.559448 
	C484.282166,872.869751 478.639191,872.417969 473.007996,871.875061 
	C469.840240,871.569641 468.562195,870.082031 468.577698,866.687439 
	C468.624146,856.528748 468.789886,846.368286 468.269348,836.202271 
	C468.057861,832.071350 466.472778,830.260559 462.589050,829.536255 
	C429.106354,823.291016 397.386505,811.906189 367.283539,796.092468 
	C359.046814,791.765503 351.361267,786.388184 343.430450,781.480530 
	C337.557648,777.846436 337.450592,777.744202 332.941040,783.180359 
	C326.773773,790.614746 320.676422,798.115173 314.810883,805.787415 
	C312.896179,808.291870 311.470459,808.933105 308.738647,807.062927 
	C281.516174,788.427368 258.457001,765.526184 238.731796,739.164978 
	C236.968140,736.808044 237.201324,735.132019 239.433075,733.231079 
	C245.393280,728.154175 251.407333,723.114197 257.030670,717.677612 
	C260.580872,714.245300 262.703491,715.238403 265.350250,718.610718 
	C276.161346,732.385376 287.552185,745.659668 300.375641,757.630981 
	C304.515015,761.495239 308.839233,765.161255 312.987793,769.015991 
	C316.180603,771.982666 318.452454,771.553345 320.238312,767.062012 
	C314.584137,761.857788 308.759644,756.676208 303.132263,751.288818 
	C260.459717,710.435669 228.930756,662.595337 211.353531,605.839600 
	C205.355072,586.470947 201.882492,566.771240 200.602783,546.606079 
	C200.455551,544.286133 199.971802,541.989380 199.743149,539.672119 
	C199.561722,537.833313 199.089096,536.300232 196.850510,536.432373 
	C194.464600,536.573242 194.518036,538.284546 194.627457,540.065918 
	C194.974487,545.716064 195.066986,551.390564 195.655823,557.013916 
	C196.014450,560.438782 194.781647,561.471802 191.568665,561.444763 
	C180.236969,561.349792 168.903580,561.334839 157.572021,561.429932 
	C154.625198,561.454651 153.244431,560.195557 153.053925,557.401001 
	C151.604553,536.140930 149.563858,514.895508 151.243317,493.548889 
	C151.986099,484.107697 152.866516,474.677124 153.566147,465.232941 
	C153.746964,462.792084 154.633957,461.648590 157.198196,461.653992 
	C169.362854,461.679504 181.527740,461.599304 193.692535,461.597290 
	C194.307846,461.597198 194.923218,461.973785 196.013138,462.330170 
	C195.462006,467.785248 194.802231,473.195221 194.432007,478.624939 
	C194.312302,480.380402 193.300598,483.093689 196.326477,483.473633 
	C199.453491,483.866272 199.572998,481.327789 199.684311,479.092743 
	C202.925369,414.015442 227.472534,357.449890 268.098938,307.227051 
	C282.504303,289.418945 298.338623,273.060455 315.782715,258.237976 
	C317.285522,256.960999 318.715851,255.598709 320.113922,254.335571 
	C317.208099,248.982361 316.689667,248.916763 312.418274,252.449432 
	C293.967560,267.709106 277.585480,284.944702 263.418152,304.229645 
	C260.545715,308.139679 258.211670,308.645599 254.650101,305.402283 
	C249.109436,300.356659 243.392563,295.504333 237.739578,290.582458 
	C235.118088,288.299988 235.027908,286.102264 237.236343,283.272919 
	C257.424438,257.408875 279.803406,233.793213 306.547058,214.523651 
	C310.082916,211.975937 312.099365,212.308105 314.769043,215.645096 
	C321.322296,223.836304 328.291534,231.693314 334.959015,239.795380 
	C336.899689,242.153687 338.431213,242.602585 341.167236,240.775879 
	C378.097687,216.119629 418.653839,200.306992 462.105042,191.735138 
	C466.419800,190.883942 468.340363,189.262253 468.216827,184.566360 
	C467.958832,174.758743 468.354279,164.935669 468.311523,155.119675 
	C468.297546,151.913605 469.403595,150.232910 472.689148,149.656601 
	C499.597076,144.936844 526.595520,144.038651 553.713745,147.499649 
	C558.990845,148.173141 564.243713,149.075378 569.535645,149.578735 
	C573.112183,149.918900 574.388489,151.581818 574.340027,155.085220 
	C574.206421,164.749313 574.609680,174.430954 574.166138,184.076477 
	C573.937622,189.046829 575.835327,190.684021 580.374878,191.520035 
	C611.006958,197.161316 640.224854,207.182297 668.278625,220.627655 
	C679.717102,226.109802 690.510742,232.751526 700.902222,239.999146 
	C704.314148,242.378815 706.382935,242.392090 709.065002,238.842300 
	C714.987183,231.004227 721.465576,223.589096 727.556641,215.874771 
	C730.218140,212.503998 732.695862,211.818604 736.367554,214.541687 
	C762.509216,233.929626 785.540955,256.421875 804.879028,282.639252 
	C806.039795,284.212952 807.713806,285.942688 805.575378,287.870728 
	C798.305908,294.424957 790.962097,300.896729 783.058594,307.922791 
	C765.979431,286.312012 748.089905,266.478607 726.873230,249.994003 
	C722.224976,253.014130 722.147461,253.532806 726.343811,257.117371 
	C754.025574,280.763672 778.319641,307.468689 797.393188,338.514496 
	C819.310791,374.189423 834.279297,412.601562 840.527344,454.244171 
	C841.789917,462.658997 841.866455,471.144379 843.152954,479.526093 
	C843.455566,481.497345 843.375183,483.960632 846.404663,483.322479 
	C849.194092,482.734894 848.531738,480.497559 848.271423,478.471954 
	C847.721191,474.188690 847.321350,469.886322 846.811340,465.597534 
	C846.476074,462.778564 847.730530,461.690491 850.493164,461.681213 
	C861.657471,461.643677 872.821655,461.533783 883.985413,461.402344 
	C887.586182,461.359955 887.846313,464.066040 888.150146,466.504059 
	C888.930298,472.764160 889.663269,479.036652 890.161011,485.324280 
	C891.952820,507.958191 891.780823,530.550781 888.507996,553.069824 
	C887.244873,561.761353 887.315186,561.615723 877.971680,561.509460 
	C869.989685,561.418762 862.002075,561.698547 854.018738,561.890930 
	C847.256470,562.053894 846.646729,561.337158 847.442078,554.640320 
	C847.971497,550.182434 848.302673,545.693054 848.502136,541.207947 
	C848.581177,539.430725 849.581055,536.690125 846.464355,536.508728 
	C843.767639,536.351746 843.523254,538.745117 843.387268,540.785461 
	C842.268066,557.584290 839.545715,574.138916 835.352478,590.421814 
	C821.962830,642.415161 798.953979,689.290161 762.092285,728.957886 
	C750.275085,741.674561 738.197266,754.035645 724.945923,765.243286 
	C724.205750,765.869263 723.593933,766.646973 722.931274,767.344727 
	C723.690613,769.478271 724.926575,770.934570 726.857727,772.076782 
	C731.647888,769.596802 735.349426,765.720215 739.203613,762.107666 
	C753.089355,749.092346 765.901123,735.098999 777.271057,719.805176 
	C781.967285,713.488220 782.493530,713.518372 788.307312,718.906494 
	C793.317505,723.549988 798.193604,728.354736 803.418091,732.744263 
	C806.533020,735.361389 806.707703,737.427246 804.221680,740.595459 
	C791.738892,756.503967 777.919556,771.119019 762.809570,784.552490 
	C754.201233,792.205811 744.998718,799.070251 735.699829,805.828735 
	C734.201050,806.918091 732.755920,808.025024 730.422852,807.755615 
M679.957031,623.527405 
	C682.919250,624.875916 685.564331,627.104614 688.958191,627.040833 
	C690.213989,625.540955 689.836365,623.986084 689.837830,622.530334 
	C689.892517,567.537659 689.942871,512.544983 689.959656,457.552307 
	C689.964966,440.221344 689.913635,422.890167 689.804871,405.559601 
	C689.767517,399.616669 688.627258,398.514893 682.799133,398.450745 
	C675.637390,398.371918 668.472778,398.500916 661.312683,398.364655 
	C657.800415,398.297821 656.016174,399.638123 655.940796,403.254944 
	C655.864563,406.915985 655.423035,410.573669 655.437683,414.231659 
	C655.588257,451.886841 655.809265,489.541779 655.965271,527.196960 
	C655.973816,529.256775 656.725891,531.554749 654.338379,533.695557 
	C649.643005,528.694031 646.133484,522.888245 642.365662,517.312012 
	C613.731201,474.933807 585.699280,432.146240 556.120850,390.410126 
	C551.377563,383.717194 546.003601,377.586853 539.111511,372.980469 
	C537.482971,371.891998 535.690491,370.175110 533.691772,371.217133 
	C531.588989,372.313385 532.366760,374.792297 532.363953,376.712982 
	C532.325195,403.709442 532.329224,430.705994 532.334656,457.702515 
	C532.337708,473.033783 532.407043,488.365234 532.358032,503.696289 
	C532.333679,511.307312 528.380554,515.820007 521.281738,516.659790 
	C514.310303,517.484497 508.813965,513.713318 506.659729,505.905457 
	C505.614044,502.115356 503.790314,500.914032 499.998993,501.064636 
	C493.177338,501.335663 486.333160,501.282654 479.506256,501.088745 
	C475.491486,500.974670 473.860657,502.336121 473.919556,506.553375 
	C474.286926,532.845764 494.718048,553.346924 521.067078,553.648438 
	C543.466125,553.904724 563.047302,537.458252 567.616150,514.516113 
	C569.753540,503.783020 568.232178,492.922760 568.684875,482.130920 
	C568.771667,480.063629 568.034790,477.863586 569.364624,475.868988 
	C571.426025,476.121918 572.032532,477.827087 572.917542,479.134674 
	C598.131165,516.387207 623.283020,553.681702 648.540100,590.904785 
	C656.987122,603.353699 665.958374,615.373535 679.957031,623.527405 
M475.528442,560.932129 
	C461.481354,540.065186 447.435486,519.197449 433.386627,498.331696 
	C428.132202,490.527588 428.108917,490.514343 433.868713,482.986603 
	C454.211823,456.399414 473.998993,429.385254 495.036530,403.330933 
	C496.146667,401.956055 497.637756,400.716675 497.354858,397.954590 
	C494.735474,397.954590 492.108643,397.949951 489.481812,397.955444 
	C479.817627,397.975616 470.147827,398.200714 460.491760,397.931580 
	C456.036804,397.807404 453.095398,399.357910 450.308685,402.769806 
	C431.018219,426.388184 413.136597,451.090393 394.349518,475.093292 
	C392.996277,476.822205 392.240051,479.360870 389.457275,479.649597 
	C387.539551,477.658478 388.118164,475.227448 388.107574,472.966309 
	C388.003235,450.638916 387.961548,428.311157 387.851654,405.983795 
	C387.816956,398.937744 387.292084,398.466125 380.052032,398.410950 
	C373.054077,398.357635 366.046692,398.582428 359.060486,398.285004 
	C354.657288,398.097565 353.254395,399.751801 353.259460,404.056519 
	C353.341553,473.706207 353.333527,543.356018 353.246582,613.005737 
	C353.241943,616.714600 354.515900,618.028198 358.165314,617.964417 
	C366.160370,617.824707 374.166443,617.791748 382.155853,618.067932 
	C386.382111,618.214050 388.243866,616.874878 388.206665,612.458801 
	C388.055298,594.475159 388.986206,576.429199 387.769226,558.525085 
	C386.848297,544.977295 389.651154,533.895081 399.402283,524.309143 
	C403.721466,520.063171 403.838989,519.514404 407.283295,524.574158 
	C416.000610,537.379944 424.604828,550.262573 433.283051,563.095032 
	C447.093109,583.516052 460.709869,604.071838 475.343903,623.922241 
	C481.202148,631.868713 489.020233,636.953796 498.548248,639.452393 
	C507.624237,641.832336 516.981812,641.790894 526.233276,642.652832 
	C527.357605,642.757507 528.617065,642.866272 529.763367,640.710144 
	C511.992981,614.565491 493.966309,588.043884 475.528442,560.932129 
M523.473511,695.649719 
	C533.838379,695.829590 544.057373,694.411499 554.222961,692.645935 
	C570.515015,689.816284 586.296265,685.304016 601.317566,678.227356 
	C605.461182,676.275269 605.743835,673.877014 603.436462,670.475220 
	C599.883789,665.237366 596.427490,659.929993 592.737671,654.790344 
	C588.089600,648.315857 588.018311,648.406189 580.879456,651.322021 
	C540.497314,667.815552 500.225128,668.168762 460.154510,650.295898 
	C456.958374,648.870300 454.828400,649.291748 452.908966,652.096497 
	C448.957245,657.870789 444.898682,663.572144 440.961273,669.356079 
	C437.221405,674.849792 437.332581,675.275940 443.255798,678.078979 
	C468.331055,689.945312 494.764038,695.721802 523.473511,695.649719 
M521.494385,320.237549 
	C494.810791,319.305481 469.785187,326.212921 445.495758,336.448242 
	C438.616302,339.347168 438.613129,339.818848 443.285675,345.792236 
	C447.593811,351.299774 452.180573,356.611389 456.159210,362.346069 
	C458.411621,365.592590 460.355896,365.435913 463.602631,364.095795 
	C480.177063,357.254700 497.410980,353.203369 515.403076,352.719818 
	C538.333801,352.103607 560.457703,355.860443 581.537659,365.089661 
	C584.365112,366.327576 586.437683,366.279907 588.420410,363.559662 
	C593.027344,357.239166 597.905640,351.117096 602.558899,344.829498 
	C605.577881,340.750092 605.267334,339.602997 600.338135,337.559052 
	C575.410950,327.222626 549.832825,319.742767 521.494385,320.237549 
M467.588928,279.812042 
	C476.823547,277.713348 486.010712,275.370117 495.495514,274.596252 
	C497.970459,274.394348 499.208008,273.022430 499.732697,270.500580 
	C501.177002,263.559052 500.540863,256.556061 500.609985,249.582855 
	C500.706085,239.882980 496.038513,236.076050 486.310730,237.768158 
	C480.087433,238.850662 473.826019,239.845581 467.709869,241.388062 
	C449.945099,245.868301 432.275665,250.748917 415.920868,259.276733 
	C400.566132,267.283112 396.214600,285.541077 406.043640,299.275330 
	C408.158386,302.230255 410.130035,302.972595 413.523132,301.143738 
	C430.444275,292.023468 448.377838,285.394867 467.588928,279.812042 
M604.933044,249.633850 
	C589.197266,244.130005 573.210144,239.723373 556.596130,237.686020 
	C547.226440,236.537033 542.276184,240.493713 542.287781,249.891495 
	C542.294128,255.055725 542.249939,260.222351 542.390076,265.383514 
	C542.569824,272.002686 544.455078,274.044434 550.926941,274.590057 
	C558.239685,275.206604 565.403931,276.648743 572.527283,278.296448 
	C592.785461,282.982483 611.809570,290.890228 629.980652,300.860443 
	C633.966797,303.047577 636.060608,302.443298 638.211426,298.464447 
	C646.401489,283.313171 642.746765,268.879364 628.038879,259.720886 
	C621.063477,255.377350 613.288940,252.803391 604.933044,249.633850 
M675.651794,685.158997 
	C672.536438,687.920227 669.611511,690.941956 666.265686,693.388062 
	C659.502563,698.332703 657.953247,704.007263 663.199829,713.665466 
	C671.396179,728.753723 693.309509,731.627441 706.868164,719.290161 
	C715.608154,711.337524 723.733215,702.660095 730.686951,693.052490 
	C743.941956,674.738770 736.130554,652.728821 714.366577,646.348999 
	C711.377502,645.472778 709.428101,645.872009 707.631836,648.601746 
	C698.786133,662.045044 687.812561,673.658752 675.651794,685.158997 
M381.508362,709.837524 
	C382.758087,705.111206 384.196167,700.268616 379.782074,696.369202 
	C363.378876,681.878601 348.509979,665.986694 335.595428,648.299744 
	C334.343018,646.584534 332.860931,645.921631 330.875031,646.468079 
	C310.453217,652.086975 298.201569,670.501770 310.634186,689.790588 
	C318.443634,701.906677 328.435028,712.336426 339.999908,720.843811 
	C355.475983,732.228271 373.397675,727.412292 381.508362,709.837524 
M621.760254,726.377686 
	C598.702881,736.666504 574.928345,744.490906 549.721558,747.443726 
	C546.240662,747.851379 543.090759,748.815857 542.972534,753.272095 
	C542.804871,759.595642 542.507629,765.916321 542.390747,772.240540 
	C542.325439,775.773621 543.605530,778.730896 546.719116,780.728271 
	C550.506042,783.157410 554.670288,783.042847 558.809631,782.359558 
	C567.821716,780.871948 576.899658,779.602722 585.772827,777.495422 
	C600.352783,774.032898 614.902283,770.132080 627.637207,761.808167 
	C640.501770,753.399536 646.667297,738.656311 638.848145,724.214783 
	C636.893188,720.604126 634.636841,719.346130 630.846130,721.665344 
	C628.153442,723.312683 625.252319,724.619324 621.760254,726.377686 
M500.101440,763.149536 
	C500.026398,760.151917 499.729889,757.139465 499.928345,754.160095 
	C500.224854,749.709106 498.078766,747.912537 493.927948,747.381165 
	C465.362579,743.724060 438.513763,734.675110 413.245148,721.003906 
	C408.899719,718.652954 406.474274,719.381104 404.508179,723.475891 
	C403.718781,725.120056 402.886078,726.778381 402.383545,728.519836 
	C398.184021,743.073181 403.554871,755.760498 418.581085,763.173950 
	C440.566742,774.020996 464.031586,780.156494 488.536804,781.817810 
	C496.339203,782.346802 500.276062,778.369324 500.591736,770.536987 
	C500.678314,768.389221 500.322113,766.223572 500.101440,763.149536 
M353.030334,295.375488 
	C347.350861,296.353180 342.147125,298.481659 337.661285,302.114532 
	C326.460999,311.185242 316.889801,321.792633 309.102905,333.886108 
	C306.122284,338.515198 304.882172,343.895874 305.862366,349.620636 
	C307.938049,361.743011 315.336792,368.937561 326.586090,372.928680 
	C330.572296,374.342957 333.270172,373.942749 335.943481,370.224274 
	C347.975922,353.487549 362.776337,339.365234 378.674133,326.380127 
	C381.720001,323.892334 383.032928,321.213409 382.683624,317.379639 
	C382.295227,313.116455 381.001770,309.247894 378.438721,305.833435 
	C372.281006,297.630127 363.856262,294.678925 353.030334,295.375488 
M784.887939,427.491058 
	C782.154907,419.277557 779.113403,411.170868 775.215088,403.445801 
	C773.583496,400.212524 771.425293,397.143097 769.032898,394.414490 
	C761.350952,385.653351 746.127686,384.589783 737.854675,391.940918 
	C734.870972,394.592163 733.934814,397.183289 736.051086,401.064880 
	C750.061584,426.762573 758.293396,454.347260 762.081665,483.280212 
	C762.720703,488.160889 765.012451,489.971252 769.629761,489.696381 
	C776.101746,489.311066 782.578918,489.014404 789.053101,488.664734 
	C794.817200,488.353424 795.960022,487.097321 795.775940,481.292908 
	C795.196289,463.014771 790.906616,445.480011 784.887939,427.491058 
M784.991577,590.651855 
	C790.509521,573.164307 794.698242,555.424316 795.818420,537.030762 
	C796.117676,532.115906 793.939697,530.386719 789.484253,530.339233 
	C782.487732,530.264587 775.487732,530.250610 768.497192,529.992676 
	C764.418152,529.842224 762.797913,531.909729 762.394897,535.591309 
	C761.050720,547.869995 758.101562,559.815125 754.906494,571.714478 
	C750.615173,587.696594 744.181335,602.832092 737.200195,617.787048 
	C734.159729,624.300476 735.481079,627.316833 741.736023,630.727905 
	C753.546326,637.168518 765.650696,633.246094 773.000977,620.522339 
	C778.283997,611.377136 781.641724,601.438965 784.991577,590.651855 
M284.260040,559.029541 
	C282.824158,551.196106 281.335785,543.371826 279.977844,535.524902 
	C279.422760,532.317322 277.941833,530.241760 274.482605,530.244019 
	C266.990143,530.248962 259.491821,530.167236 252.007721,530.442322 
	C247.958542,530.591248 246.065384,533.188416 246.560226,537.217041 
	C248.772156,555.224365 252.032867,573.030701 257.734528,590.288879 
	C261.434113,601.486877 264.564301,612.972778 271.208069,622.948914 
	C277.931335,633.044495 290.051849,636.500916 300.542389,631.503967 
	C308.194244,627.859253 309.260620,624.896729 305.472290,617.356812 
	C296.245941,598.993530 289.360596,579.781616 284.260040,559.029541 
M719.766357,315.729614 
	C713.797913,309.439575 707.845764,303.092316 700.193665,298.790680 
	C687.038452,291.395508 670.874451,295.544678 663.491699,308.067047 
	C659.185120,315.371735 660.158386,322.054596 666.463501,327.567200 
	C681.669189,340.861603 696.035400,354.947998 708.127014,371.215179 
	C709.406921,372.937134 710.656372,374.658630 713.415771,374.027557 
	C731.131775,369.976166 744.809143,350.320709 732.854858,331.726929 
	C729.228760,326.086731 724.675842,321.224548 719.766357,315.729614 
M285.519073,453.212189 
	C290.284393,435.140137 297.305725,417.938019 305.420319,401.139038 
	C308.963318,393.804352 308.204712,392.073425 300.716064,388.599823 
	C299.667328,388.113403 298.559784,387.707733 297.438354,387.431274 
	C285.744934,384.548798 274.928070,389.520844 268.728882,400.991608 
	C261.895996,413.634918 257.362183,427.200226 253.486526,440.989716 
	C249.834854,453.982239 247.839294,467.280670 246.462067,480.674225 
	C246.128647,483.916901 245.436462,488.123688 250.236328,488.454041 
	C258.187439,489.001251 266.138947,490.169861 274.137390,489.570343 
	C277.533630,489.315826 279.316162,487.488800 279.762787,483.817230 
	C280.984253,473.775665 282.733368,463.808716 285.519073,453.212189 
M745.052979,570.625916 
	C748.325867,559.452087 750.317627,547.999695 752.379272,536.567017 
	C752.985779,533.203735 751.989868,530.460510 748.080750,530.104797 
	C744.432739,529.772827 740.940308,529.999634 740.373108,534.903870 
	C739.934875,538.693237 739.454346,542.487122 738.760071,546.235962 
	C735.075806,566.129517 728.453613,585.053528 719.797119,603.302612 
	C718.055359,606.974609 719.534180,612.217529 722.612244,613.789734 
	C725.413208,615.220337 728.772278,613.117432 730.874573,608.696106 
	C736.595886,596.663757 741.430908,584.303467 745.052979,570.625916 
M307.517761,456.172394 
	C310.773560,442.327667 316.127533,429.297699 322.593842,416.665222 
	C325.660950,410.673431 323.734344,405.445984 317.569366,401.816772 
	C315.659485,402.490509 315.023987,404.290649 314.119537,405.845459 
	C308.654175,415.240326 305.029663,425.440735 301.196930,435.544098 
	C296.347778,448.326904 291.923889,461.169983 293.935822,475.261688 
	C294.346039,478.135101 294.445068,481.238922 293.057465,484.083618 
	C290.697205,488.922211 291.547028,490.032196 296.963287,489.779663 
	C299.996613,489.638214 301.423737,488.285400 301.876190,485.313354 
	C303.324677,475.798462 304.556763,466.236420 307.517761,456.172394 
M747.655273,457.727966 
	C744.962036,446.034851 740.886292,434.787567 736.639160,423.596283 
	C734.508362,417.981628 731.847046,412.621643 728.771973,407.468323 
	C727.696411,405.666016 726.167358,404.212708 723.981323,404.427551 
	C721.574280,404.664093 721.150696,407.006958 720.426636,408.797241 
	C719.653625,410.708466 719.776123,412.755951 720.452209,414.678162 
	C721.774963,418.438965 723.052307,422.229584 724.640808,425.880646 
	C730.294189,438.874634 734.727295,452.244873 737.293579,466.193970 
	C738.435120,472.398834 739.342163,478.646881 740.357117,484.875061 
	C741.119080,489.550873 744.439636,490.042297 748.223083,489.569611 
	C752.177124,489.075562 752.703247,486.516541 752.326721,483.034576 
	C751.430664,474.747711 749.724121,466.632111 747.655273,457.727966 
M585.180420,729.627563 
	C591.800049,727.385803 598.452637,725.235840 605.029663,722.875366 
	C611.143433,720.681091 617.122070,718.123352 622.744934,714.846497 
	C624.755188,713.674927 627.545105,711.372620 624.298828,709.728638 
	C620.273987,707.690552 615.962524,705.433289 610.645630,707.481384 
	C600.881348,711.242615 591.236389,715.466675 581.017273,717.919556 
	C570.670959,720.402893 560.240967,722.536255 549.875793,724.944153 
	C544.846863,726.112427 542.964417,729.502563 544.426392,734.738525 
	C545.614624,738.994202 549.041992,737.586792 551.862000,737.239258 
	C562.956665,735.871704 573.732910,733.069336 585.180420,729.627563 
M559.723511,285.887939 
	C556.109619,285.364349 552.504822,284.761383 548.878418,284.347107 
	C546.725525,284.101166 544.956848,284.644135 544.434692,287.233002 
	C543.543457,291.651123 545.712036,295.071930 550.127258,295.783325 
	C567.580383,298.595367 584.677795,302.730438 601.048706,309.526428 
	C607.039673,312.013397 612.936035,314.727203 618.912415,317.250336 
	C621.980469,318.545624 624.170349,317.129700 625.419128,314.406097 
	C626.698303,311.616394 625.380432,309.683502 622.824402,308.301453 
	C603.207947,297.694824 582.440430,290.332458 559.723511,285.887939 
M421.077789,711.079895 
	C419.836182,713.981750 422.354095,714.460327 423.964386,715.284851 
	C433.911163,720.377869 444.178009,724.743958 454.846405,728.077820 
	C466.916687,731.849548 479.042755,735.455322 491.665222,736.956421 
	C493.920410,737.224609 496.734528,738.162781 497.676056,735.171753 
	C498.643677,732.097900 497.740753,729.149353 494.684631,727.451355 
	C492.957672,726.491882 491.104553,725.584351 489.195465,725.155518 
	C473.893494,721.718811 458.757996,717.514709 444.555908,710.943848 
	C436.500519,707.216919 429.293579,707.776428 421.077789,711.079895 
M494.900970,285.075867 
	C468.140106,287.432343 443.655640,297.078705 419.765930,308.596558 
	C418.047852,309.424866 416.674255,310.767273 417.800537,312.992126 
	C418.805023,314.976349 420.328857,314.311371 422.066956,314.036346 
	C427.778473,313.132690 432.072998,305.718781 438.980255,310.312225 
	C439.146698,310.422913 439.586761,310.116608 439.901245,310.010803 
	C457.364716,304.135925 474.744690,298.017944 493.093445,295.252106 
	C497.512543,294.586029 498.705261,289.042847 494.900970,285.075867 
M611.062439,383.414825 
	C611.711731,383.931244 612.408630,384.398376 613.002441,384.972229 
	C616.414734,388.269867 618.925232,387.939301 621.511597,383.691681 
	C625.389038,377.323639 629.717529,371.222961 634.011963,365.119598 
	C635.808594,362.566132 635.674133,360.649261 633.151672,358.798767 
	C629.541687,356.150513 625.948547,353.475800 622.425110,350.714142 
	C619.932922,348.760742 617.938721,349.162079 616.067627,351.569427 
	C612.199402,356.546265 608.274414,361.478973 604.391907,366.444763 
	C598.396484,374.112976 598.409729,374.109314 606.158875,379.636871 
	C607.643066,380.695587 609.054504,381.856354 611.062439,383.414825 
M442.056488,375.474121 
	C444.763428,373.534760 443.706238,371.533905 442.154205,369.524323 
	C438.492859,364.783569 434.859833,360.020599 431.164337,355.306641 
	C425.279694,347.800232 425.255493,347.805084 417.428589,353.594666 
	C415.020813,355.375671 412.656769,357.215973 410.279266,359.037720 
	C408.672211,360.269043 407.690704,361.703369 409.012360,363.710938 
	C414.382568,371.868225 419.654877,380.099121 426.258667,387.814941 
	C431.576569,383.661835 436.535095,379.789398 442.056488,375.474121 
M432.818329,633.704956 
	C426.161896,628.140503 426.049286,628.058167 421.100769,634.826050 
	C416.975433,640.468079 413.197083,646.362549 409.180145,652.085632 
	C407.427826,654.582153 407.492889,656.657410 410.051239,658.483948 
	C413.842957,661.191040 417.650818,663.876038 421.416687,666.618713 
	C423.734741,668.307007 425.417206,667.781677 426.602539,665.288269 
	C429.121429,659.989441 432.693878,655.374756 436.024384,650.594910 
	C442.536041,641.249695 442.501160,641.225403 432.818329,633.704956 
M619.028137,665.437683 
	C620.461548,667.904968 622.220154,667.970642 624.336121,666.250549 
	C627.301636,663.839844 630.319519,661.493591 633.318848,659.124634 
	C635.857178,657.119812 636.128296,655.009094 634.159973,652.288086 
	C630.166809,646.768188 626.454102,641.046326 622.516174,635.485352 
	C617.698303,628.681763 617.654602,628.722595 611.228455,633.650146 
	C609.381958,635.066040 607.595825,636.595947 605.610168,637.787170 
	C601.906494,640.008911 602.257202,642.304993 604.640198,645.445190 
	C609.461487,651.798401 613.967834,658.390442 619.028137,665.437683 
M300.995117,566.568054 
	C306.334412,582.399597 311.106567,598.466736 319.894623,613.161865 
	C324.177094,610.230286 324.315582,607.019653 322.317200,603.027161 
	C314.608521,587.626099 309.543701,571.303406 305.338074,554.641296 
	C303.577515,547.666260 303.070374,540.540894 301.627960,533.548035 
	C300.952820,530.275024 298.911133,529.048340 295.842560,529.531616 
	C292.437256,530.067871 293.614990,532.629089 293.917877,534.648438 
	C295.498505,545.186890 297.560608,555.623291 300.995117,566.568054 
M544.361755,178.116776 
	C528.881897,176.457397 513.421326,177.703995 497.960602,178.462692 
	C492.754059,178.718185 492.949310,182.087936 493.818176,186.117249 
	C511.088013,185.347977 528.200500,185.488190 545.312256,185.902405 
	C547.479797,185.954865 548.835510,185.146347 548.967102,182.815155 
	C549.118713,180.128220 548.396729,178.170242 544.361755,178.116776 
M548.692627,839.992310 
	C549.687683,835.159180 547.499390,833.672668 542.950623,834.296692 
	C537.023804,835.109680 531.054138,835.344116 525.066528,835.336487 
	C516.097351,835.325073 507.131256,835.290161 498.201172,834.354797 
	C494.477203,833.964722 493.150269,835.526367 493.283447,839.201050 
	C493.432465,843.312744 496.515747,842.493347 498.684387,842.515625 
	C513.463928,842.667297 528.245544,842.636658 543.026428,842.624573 
	C545.001953,842.622925 547.071594,842.665039 548.692627,839.992310 
M524.769592,294.886688 
	C525.100159,294.513123 525.408936,294.117157 525.764771,293.769470 
	C528.812683,290.791199 529.839844,287.660706 526.357300,284.311829 
	C523.551941,281.614197 518.895203,281.412872 516.401306,283.993439 
	C513.277710,287.225555 513.791138,290.554626 516.565125,293.767120 
	C517.076294,294.359070 517.599060,294.940918 518.175903,295.594849 
	C517.546753,296.276489 517.101685,296.757721 516.657654,297.239929 
	C513.929688,300.202332 513.114197,303.441559 516.227173,306.475006 
	C519.028381,309.204620 522.487793,309.762054 525.695251,307.111389 
	C529.288025,304.142273 528.680420,300.805511 525.932373,297.526886 
	C525.408569,296.901886 524.996094,296.183502 524.769592,294.886688 
M724.410828,281.997314 
	C719.511780,284.968109 717.911987,289.025482 720.070129,293.005798 
	C722.164368,296.868042 727.460449,298.532471 731.148621,296.456116 
	C734.555969,294.537872 735.512634,291.381500 734.470886,287.959229 
	C733.126038,283.541351 729.915833,281.251587 724.410828,281.997314 
M319.177307,282.363586 
	C314.048492,280.965210 310.844452,282.593414 309.074036,287.452576 
	C307.542877,291.655090 309.293304,294.600494 312.799530,296.652161 
	C315.953613,298.497833 320.593079,296.898346 322.718964,293.483185 
	C324.941803,289.912262 323.977997,286.325897 319.177307,282.363586 
M821.175720,510.244598 
	C821.035889,514.114563 823.104126,516.100403 826.749146,516.599731 
	C831.304871,517.223816 835.107788,514.277039 835.604187,509.840271 
	C836.102844,505.384277 832.971680,501.580658 828.533081,501.250305 
	C823.590088,500.882416 821.443359,503.259430 821.175720,510.244598 
M213.222687,516.434387 
	C216.356400,516.961548 219.417465,516.822632 220.846985,513.482727 
	C222.251404,510.201416 222.431763,506.662567 220.383392,503.515961 
	C218.525833,500.662506 215.465698,500.999359 212.729340,501.594604 
	C209.728775,502.247223 207.888290,504.452881 207.444092,507.498016 
	C206.838470,511.649628 208.750702,514.486084 213.222687,516.434387 
M528.003723,214.241516 
	C529.796021,208.272308 528.001160,204.304749 522.876343,202.907562 
	C518.963501,201.840790 515.010925,204.329605 513.867676,208.614380 
	C512.922729,212.155685 514.316650,215.031921 517.266724,216.632004 
	C520.903259,218.604401 524.622437,218.350922 528.003723,214.241516 
M242.517303,501.207550 
	C236.616943,502.016937 234.606323,504.713928 235.419769,510.728027 
	C236.004471,515.051086 238.651993,517.089111 243.092606,516.582397 
	C246.777466,516.161926 248.845673,514.221558 248.808990,510.356781 
	C248.769836,506.232361 249.691055,501.539490 242.517303,501.207550 
M319.934753,724.556274 
	C315.022156,722.953186 310.670532,724.639343 309.526733,728.791992 
	C308.443329,732.725342 309.337555,736.073364 313.361176,737.863220 
	C317.196167,739.569214 320.629700,738.757874 322.850922,735.173828 
	C325.312561,731.201904 324.523773,727.618469 319.934753,724.556274 
M731.260498,725.189636 
	C728.366882,723.058228 725.483643,722.933289 722.642212,725.272644 
	C720.161255,727.315186 718.788086,729.901184 719.549744,733.132568 
	C720.333984,736.459900 723.010376,737.910278 726.064880,738.480591 
	C729.130615,739.052917 731.655823,737.766663 733.225281,735.110229 
	C735.263550,731.660339 734.554565,728.463928 731.260498,725.189636 
M721.428040,500.515991 
	C715.439453,502.059662 712.812561,509.358856 716.448853,514.351562 
	C719.023621,517.886597 724.997681,517.752502 727.022705,514.114197 
	C729.608887,509.467590 727.193420,502.763153 721.428040,500.515991 
M319.132965,501.331604 
	C313.266754,503.474518 315.632233,508.468658 315.487640,512.431274 
	C315.387451,515.177490 317.576782,516.342712 320.137634,516.662048 
	C324.728912,517.234314 327.394470,515.045227 327.711243,510.431854 
	C328.225433,502.943329 326.772278,501.219727 319.132965,501.331604 
M754.562744,506.162842 
	C752.650879,501.592712 749.469116,500.003052 745.333252,501.551544 
	C742.274475,502.696808 740.902344,507.835266 742.295166,512.997864 
	C743.418152,517.160400 746.792542,517.164917 749.875671,516.500000 
	C755.105835,515.372070 754.696167,510.984711 754.562744,506.162842 
M272.572144,501.655823 
	C264.082550,500.543182 261.712372,503.112854 263.160095,511.632599 
	C263.695251,514.781921 265.568726,516.209473 268.516785,516.527344 
	C271.651886,516.865356 274.438660,515.890442 275.174530,512.682373 
	C276.012604,509.028564 276.680328,505.082489 272.572144,501.655823 
M799.621460,501.192108 
	C796.859253,501.253296 794.445129,502.131439 794.387024,505.262054 
	C794.322815,508.722687 792.786133,512.702209 796.737488,515.263611 
	C799.385010,516.979858 802.168457,517.044067 804.653625,515.174377 
	C808.016296,512.644470 807.122253,508.912903 806.670654,505.530334 
	C806.205261,502.043549 803.549438,501.155518 799.621460,501.192108 
M297.797241,516.484436 
	C299.341553,516.000732 300.261261,514.874268 300.933167,513.474243 
	C303.354034,508.429871 301.115997,501.702026 296.841766,501.197144 
	C292.086029,500.635376 289.697937,502.662201 289.361938,507.545410 
	C288.877838,514.581726 290.474640,516.467773 297.797241,516.484436 
M780.517212,511.728088 
	C780.504272,509.739441 780.722412,507.714569 780.417664,505.771729 
	C780.067017,503.536407 778.873291,501.634216 776.331543,501.372681 
	C773.886108,501.121033 771.266602,500.586975 769.314392,502.757111 
	C767.271301,505.028473 768.006470,513.458801 770.329041,515.306091 
	C773.491516,517.821472 777.069336,516.806335 780.517212,511.728088 
M528.642883,811.081055 
	C528.384460,805.106445 525.225891,801.832153 520.321899,802.455078 
	C516.182434,802.980896 513.439880,806.952209 514.334290,811.183960 
	C515.000793,814.337402 517.220215,816.055359 520.171204,816.524780 
	C524.033997,817.139282 526.955750,815.568604 528.642883,811.081055 
M526.845825,779.658264 
	C525.561279,778.937866 524.343994,777.800598 522.978638,777.579956 
	C519.688965,777.048645 516.537659,777.742676 514.908081,781.017944 
	C513.620850,783.605225 513.926453,786.452942 516.301758,788.239746 
	C519.333130,790.520081 522.926758,790.622681 526.068848,788.483765 
	C529.186646,786.361328 529.387329,783.359619 526.845825,779.658264 
M522.833130,244.347916 
	C526.487915,242.850098 529.563721,240.866516 527.962524,236.197708 
	C526.598816,232.221344 523.258118,231.082611 519.538818,231.775116 
	C516.050171,232.424728 514.022583,234.835449 514.374695,238.608978 
	C514.812439,243.299408 518.111633,244.415680 522.833130,244.347916 
M329.702423,534.803711 
	C329.398346,532.571228 330.712799,529.306580 326.542450,529.450256 
	C322.264526,529.597656 323.138336,532.897278 323.425873,535.343079 
	C323.926941,539.605225 324.672882,543.862000 325.676147,548.034424 
	C326.509125,551.498779 326.531342,555.335632 329.709717,559.221069 
	C329.709717,550.635742 329.709717,543.182007 329.702423,534.803711 
M523.732910,720.419128 
	C527.143494,718.944275 529.475037,716.771851 527.891724,712.723328 
	C526.363708,708.816284 523.077698,707.854065 519.304382,708.542419 
	C516.140137,709.119751 514.269104,711.240540 514.408081,714.510864 
	C514.594666,718.902039 517.691040,720.271484 521.500183,720.635254 
	C521.991333,720.682129 522.495117,720.597168 523.732910,720.419128 
M528.386353,263.292816 
	C528.229919,262.487244 528.209717,261.623291 527.893921,260.885956 
	C526.374023,257.336884 522.410706,255.525772 518.907227,256.845123 
	C515.483826,258.134308 513.818298,260.814575 514.637268,264.311371 
	C515.651428,268.641663 519.193604,269.045532 522.945068,268.675812 
	C525.861084,268.388458 527.190918,266.373627 528.386353,263.292816 
M329.695007,472.527649 
	C329.695007,468.821289 329.695007,465.114929 329.695007,461.408569 
	C329.269836,461.381989 328.844635,461.355438 328.419464,461.328888 
	C326.077789,469.311920 323.794495,477.311462 323.309143,485.721161 
	C323.178070,487.992584 323.882538,489.664368 326.595886,489.586670 
	C329.004364,489.517700 329.638092,487.983521 329.647949,485.929535 
	C329.667816,481.791443 329.680084,477.653320 329.695007,472.527649 
M518.449219,753.647644 
	C515.672913,755.030334 513.813354,757.101929 514.704529,760.345520 
	C515.880127,764.624451 519.376648,765.066833 523.059753,764.611450 
	C526.569641,764.177612 528.518250,761.795837 528.233032,758.498718 
	C527.923096,754.914856 525.482910,752.991211 521.674072,753.288208 
	C520.850464,753.352478 520.025391,753.398438 518.449219,753.647644 
M189.721024,506.111908 
	C188.728287,503.898956 186.775803,504.135345 185.035629,504.559418 
	C182.894684,505.081116 183.239914,507.081604 183.218262,508.680542 
	C183.173477,511.989716 183.263718,515.300476 183.253510,518.610474 
	C183.246872,520.764221 183.461014,522.526733 186.320938,522.663086 
	C189.230011,522.801636 189.958908,521.214417 190.313309,518.784058 
	C190.896698,514.783386 190.187363,510.861298 189.721024,506.111908 
M859.365173,511.957428 
	C859.329956,510.629639 859.239197,509.300476 859.271729,507.974365 
	C859.329346,505.622650 858.672119,504.173767 855.880981,504.312012 
	C853.331665,504.438354 852.308105,505.605713 852.330994,508.052765 
	C852.366760,511.880768 852.310852,515.709534 852.317444,519.537964 
	C852.320923,521.569702 853.379883,522.563049 855.406250,522.630310 
	C857.249512,522.691345 858.653137,522.308044 859.054810,520.150940 
	C859.516968,517.669250 859.632996,515.198792 859.365173,511.957428 
M716.407043,468.146240 
	C715.518921,466.572510 715.997925,464.253510 713.404419,462.739105 
	C713.404419,470.634888 713.365112,477.894043 713.427246,485.152344 
	C713.447144,487.469818 714.575806,488.963074 717.130432,488.811859 
	C720.034729,488.639954 719.916199,486.573395 719.832092,484.475189 
	C719.616638,479.101776 717.842224,474.061371 716.407043,468.146240 
M717.114441,547.788086 
	C717.953064,543.915405 718.943787,540.067200 719.571106,536.160583 
	C719.923584,533.965088 720.475952,531.137756 717.196289,530.543640 
	C713.473633,529.869263 713.706604,533.179077 713.648132,535.165588 
	C713.416565,543.031189 713.553040,550.907593 713.553040,560.151794 
	C715.211182,555.519653 716.449341,552.176208 717.114441,547.788086 
M396.368439,332.355377 
	C399.780914,333.829681 402.047668,331.780975 404.217804,329.695099 
	C405.423737,328.535950 405.507080,327.000824 404.662689,325.580688 
	C403.645874,323.870453 402.554169,322.022369 400.179688,322.220215 
	C397.372345,322.454102 395.073792,323.857361 393.814514,326.358002 
	C392.652863,328.664825 393.947723,330.472534 396.368439,332.355377 
M524.433594,740.335144 
	C523.836731,738.529602 525.019653,737.620972 526.216797,736.658630 
	C528.026306,735.204224 527.190125,733.642944 526.074341,732.364746 
	C523.990234,729.976990 521.245605,729.605408 518.372803,730.558838 
	C516.721802,731.106934 515.514954,732.344299 515.554016,734.231934 
	C515.584717,735.708740 516.969971,735.816711 518.018433,736.259949 
	C519.408752,736.847717 521.516785,736.704590 521.330078,738.724182 
	C520.707642,741.038086 518.212280,739.607971 517.065735,741.522461 
	C519.962463,741.880432 522.496155,744.781555 524.433594,740.335144 
z"/>
<path fill="#000000" opacity="1.000000" stroke="none" 
	d="
M624.789551,853.011353 
	C619.889526,854.261780 615.421143,855.697449 610.840393,856.429565 
	C606.767883,857.080383 602.601074,856.707764 601.108459,851.737061 
	C600.076660,848.300964 602.850769,845.132202 608.202148,843.756531 
	C632.015564,837.634644 654.790955,828.820862 676.656860,817.610901 
	C677.543701,817.156250 678.456299,816.724854 679.399841,816.412476 
	C683.055176,815.202087 686.151733,816.120667 687.911926,819.551453 
	C689.607605,822.856750 688.411194,825.786499 685.421326,827.796143 
	C679.037109,832.087402 672.022339,835.196167 665.039368,838.346802 
	C652.110657,844.179993 638.621033,848.480347 624.789551,853.011353 
z"/>
<path fill="#000000" opacity="1.000000" stroke="none" 
	d="
M377.294373,836.792969 
	C371.557434,834.041870 365.909698,831.937378 360.923065,828.553284 
	C357.685913,826.356506 354.292938,824.078064 356.767700,819.316406 
	C358.692383,815.613220 362.267181,814.632202 367.126343,817.131470 
	C380.918152,824.224976 395.187256,830.179260 409.785370,835.333069 
	C417.935089,838.210205 426.255951,840.606201 434.516602,843.164246 
	C440.851288,845.125916 443.172729,847.754211 441.938660,851.745850 
	C440.672699,855.840759 436.455475,857.621155 430.658569,855.956726 
	C412.580231,850.765747 394.697998,844.992676 377.294373,836.792969 
z"/>
<path fill="#000000" opacity="1.000000" stroke="none" 
	d="
M415.958801,183.069275 
	C400.227386,188.710037 384.817047,194.093369 370.493744,202.092224 
	C368.772522,203.053406 366.843781,203.803482 364.918213,204.202866 
	C361.516510,204.908386 358.435272,204.090897 357.061829,200.562668 
	C355.766296,197.234634 356.647247,194.190140 359.836792,192.355850 
	C363.726532,190.118881 367.682495,187.941055 371.787933,186.144730 
	C391.327637,177.595154 411.209717,169.974411 431.846375,164.436172 
	C436.017639,163.316757 439.615906,163.590591 441.374756,168.054611 
	C442.811523,171.701111 440.769440,174.649734 435.742798,176.432709 
	C429.311829,178.713791 422.806976,180.786560 415.958801,183.069275 
z"/>
<path fill="#000000" opacity="1.000000" stroke="none" 
	d="
M665.737061,183.127319 
	C671.874939,186.199554 677.708618,189.041565 683.466919,192.028748 
	C688.794189,194.792252 690.409485,197.752502 688.737122,201.225388 
	C687.117615,204.588242 682.784180,205.371002 677.676331,203.074677 
	C668.578064,198.984390 659.609192,194.591049 650.413208,190.737228 
	C638.751831,185.850220 626.708862,182.016205 614.483154,178.758194 
	C611.603088,177.990707 608.782654,176.929626 606.027893,175.780441 
	C602.918884,174.483444 601.201599,172.088058 602.103516,168.645889 
	C603.042114,165.063797 605.818115,163.483917 609.314758,163.875931 
	C612.429810,164.225159 615.531799,165.033188 618.536194,165.970215 
	C634.413025,170.921921 650.257629,175.977234 665.737061,183.127319 
z"/>
<path fill="#000000" opacity="1.000000" stroke="none" 
	d="
M200.876099,639.293701 
	C202.241776,645.980774 201.190781,648.793457 197.160461,649.983398 
	C192.849533,651.256104 189.073334,648.717163 187.327271,643.233948 
	C182.728699,628.792847 179.002975,614.126465 176.202621,599.231140 
	C175.270111,594.270935 177.333771,590.458313 181.141724,589.795898 
	C185.270996,589.077576 188.218460,591.362488 189.356369,596.541016 
	C192.499191,610.844116 196.159470,625.003174 200.876099,639.293701 
z"/>
<path fill="#000000" opacity="1.000000" stroke="none" 
	d="
M850.466919,610.489685 
	C851.656982,605.223572 852.519226,600.292603 853.872498,595.500244 
	C855.244202,590.642517 858.507812,588.590576 862.349487,590.012146 
	C866.390991,591.507690 867.657410,594.662048 866.806580,598.846924 
	C863.722168,614.018311 859.864746,628.985107 855.109619,643.719421 
	C854.956360,644.194214 854.785217,644.664978 854.591736,645.124756 
	C852.909302,649.122070 848.605774,651.387878 844.913696,649.981873 
	C840.604492,648.341003 839.946472,644.829041 841.106384,640.929077 
	C844.093567,630.886169 847.259827,620.896606 850.466919,610.489685 
z"/>
<path fill="#000000" opacity="1.000000" stroke="none" 
	d="
M180.708252,404.936096 
	C182.855331,398.040009 184.867340,391.525787 187.005997,385.053467 
	C187.627106,383.173798 188.360931,381.239441 189.480988,379.636047 
	C191.688156,376.476410 194.799225,375.838470 198.286057,377.430176 
	C201.719315,378.997406 202.848907,381.772247 201.704269,385.251801 
	C196.820297,400.098511 191.943924,414.931427 189.097290,430.359985 
	C188.309097,434.632019 184.236954,437.026703 180.479370,435.973694 
	C176.004608,434.719757 175.170532,431.155579 175.914078,427.254547 
	C177.313004,419.915253 179.034210,412.637360 180.708252,404.936096 
z"/>
<path fill="#000000" opacity="1.000000" stroke="none" 
	d="
M851.946716,379.121185 
	C858.524109,392.303589 861.868774,406.169098 865.291687,420.008301 
	C865.888611,422.421722 866.617310,424.824524 866.945435,427.277618 
	C867.506042,431.467926 865.667175,434.449738 861.587646,435.625000 
	C857.675415,436.752045 854.960266,434.752930 853.848572,431.213074 
	C852.363098,426.482849 851.649353,421.513702 850.234863,416.756958 
	C847.207581,406.576050 843.910461,396.475708 840.794128,386.320770 
	C839.755920,382.937653 839.707275,379.491486 843.114380,377.437164 
	C846.127625,375.620392 849.188293,376.215912 851.946716,379.121185 
z"/>
</svg>